<svg width="23" height="16" viewBox="0 0 23 16" fill="none" xmlns="http://www.w3.org/2000/svg">
<path d="M22.1011 3.08562C21.8454 2.15705 21.0958 1.42506 20.1453 1.17503C18.4088 0.710938 11.4625 0.710938 11.4625 0.710938C11.4625 0.710938 4.51652 0.710938 2.77999 1.15743C1.84773 1.4072 1.0799 2.15718 0.824176 3.08562C0.367188 4.78163 0.367188 8.29894 0.367188 8.29894C0.367188 8.29894 0.367188 11.834 0.824176 13.5123C1.08017 14.4407 1.82944 15.1727 2.78013 15.4227C4.53481 15.887 11.4628 15.887 11.4628 15.887C11.4628 15.887 18.4088 15.887 20.1453 15.4405C21.096 15.1906 21.8454 14.4586 22.1014 13.5301C22.5582 11.834 22.5582 8.3168 22.5582 8.3168C22.5582 8.3168 22.5765 4.78163 22.1011 3.08562ZM9.25098 11.5484V5.04953L15.0271 8.29894L9.25098 11.5484Z" fill="#0B0E1B"/>
</svg>
