<svg width="19" height="12" viewBox="0 0 19 12" fill="none" xmlns="http://www.w3.org/2000/svg">
<path d="M9.984 11.667C3.94653 11.667 0.502861 7.44585 0.359375 0.421875H3.38363C3.48296 5.57729 5.71252 7.76103 7.47851 8.21128V0.421875H10.3262V4.86814C12.0701 4.67678 13.9023 2.65064 14.5204 0.421875H17.368C17.1351 1.57777 16.6708 2.67223 16.0042 3.63677C15.3376 4.60132 14.483 5.41522 13.4939 6.02755C14.598 6.58705 15.5732 7.37899 16.3552 8.35108C17.1371 9.32318 17.708 10.4533 18.0303 11.667H14.8956C14.6064 10.6128 14.0185 9.66922 13.2056 8.95437C12.3928 8.23951 11.3911 7.78524 10.3262 7.64846V11.667H9.984Z" fill="#4FA9DB"/>
<path d="M9.984 11.667C3.94653 11.667 0.502861 7.44585 0.359375 0.421875H3.38363C3.48296 5.57729 5.71252 7.76103 7.47851 8.21128V0.421875H10.3262V4.86814C12.0701 4.67678 13.9023 2.65064 14.5204 0.421875H17.368C17.1351 1.57777 16.6708 2.67223 16.0042 3.63677C15.3376 4.60132 14.483 5.41522 13.4939 6.02755C14.598 6.58705 15.5732 7.37899 16.3552 8.35108C17.1371 9.32318 17.708 10.4533 18.0303 11.667H14.8956C14.6064 10.6128 14.0185 9.66922 13.2056 8.95437C12.3928 8.23951 11.3911 7.78524 10.3262 7.64846V11.667H9.984Z" fill="#4FA9DB"/>
<path d="M9.984 11.667C3.94653 11.667 0.502861 7.44585 0.359375 0.421875H3.38363C3.48296 5.57729 5.71252 7.76103 7.47851 8.21128V0.421875H10.3262V4.86814C12.0701 4.67678 13.9023 2.65064 14.5204 0.421875H17.368C17.1351 1.57777 16.6708 2.67223 16.0042 3.63677C15.3376 4.60132 14.483 5.41522 13.4939 6.02755C14.598 6.58705 15.5732 7.37899 16.3552 8.35108C17.1371 9.32318 17.708 10.4533 18.0303 11.667H14.8956C14.6064 10.6128 14.0185 9.66922 13.2056 8.95437C12.3928 8.23951 11.3911 7.78524 10.3262 7.64846V11.667H9.984Z" fill="#4FA9DB"/>
</svg>
