<svg width="9" height="16" viewBox="0 0 9 16" fill="none" xmlns="http://www.w3.org/2000/svg">
<path d="M2.83307 5.74044V11.4532C2.83967 11.871 3.01025 12.2694 3.308 12.5625C3.60575 12.8555 4.0068 13.0198 4.42459 13.0198C4.84239 13.0198 5.24343 12.8555 5.54118 12.5625C5.83893 12.2694 6.00951 11.871 6.01611 11.4532L6.02127 3.96525C6.02561 3.60819 5.95902 3.25383 5.82538 2.9227C5.69174 2.59158 5.4937 2.29027 5.24275 2.03625C4.99179 1.78223 4.69291 1.58055 4.36343 1.4429C4.03394 1.30525 3.68042 1.23438 3.32334 1.23438C2.96626 1.23438 2.61273 1.30525 2.28325 1.4429C1.95377 1.58055 1.65488 1.78223 1.40393 2.03625C1.15297 2.29027 0.954931 2.59158 0.82129 2.9227C0.687649 3.25383 0.621065 3.60819 0.625397 3.96525V11.5037C0.618123 12.0063 0.710847 12.5055 0.898181 12.972C1.08551 13.4385 1.36372 13.8631 1.71662 14.2212C2.06952 14.5792 2.49008 14.8635 2.95384 15.0576C3.4176 15.2517 3.91531 15.3516 4.41804 15.3516C4.92077 15.3516 5.41848 15.2517 5.88224 15.0576C6.346 14.8635 6.76656 14.5792 7.11946 14.2212C7.47236 13.8631 7.75057 13.4385 7.9379 12.972C8.12523 12.5055 8.21796 12.0063 8.21068 11.5037V4.45928" stroke="white" stroke-width="0.7625" stroke-miterlimit="10" stroke-linecap="round"/>
</svg>
