<svg width="39" height="26" viewBox="0 0 39 26" fill="none" xmlns="http://www.w3.org/2000/svg">
<path d="M15.171 23.3307C15.171 24.4813 16.1037 25.4141 17.2543 25.4141H21.421C22.5716 25.4141 23.5043 24.4813 23.5043 23.3307V23.3307C23.5043 22.1801 22.5716 21.2474 21.421 21.2474H17.2543C16.1037 21.2474 15.171 22.1801 15.171 23.3307V23.3307ZM2.67098 0.414062C1.52039 0.414062 0.587646 1.3468 0.587646 2.4974V2.4974C0.587646 3.64799 1.52039 4.58073 2.67098 4.58073H36.0043C37.1549 4.58073 38.0876 3.64799 38.0876 2.4974V2.4974C38.0876 1.3468 37.1549 0.414062 36.0043 0.414062H2.67098ZM6.83765 12.9141C6.83765 14.0647 7.77039 14.9974 8.92098 14.9974H29.7543C30.9049 14.9974 31.8376 14.0647 31.8376 12.9141V12.9141C31.8376 11.7635 30.9049 10.8307 29.7543 10.8307H8.92098C7.77039 10.8307 6.83765 11.7635 6.83765 12.9141V12.9141Z" fill="#CAB696"/>
</svg>
