<svg width="35" height="35" viewBox="0 0 35 35" fill="none" xmlns="http://www.w3.org/2000/svg">
<path d="M17.8267 0.5625H17.8182C8.40701 0.5625 0.753906 8.21652 0.753906 17.6283C0.753906 21.3615 1.95724 24.8216 4.00333 27.631L1.87616 33.971L8.43688 31.874C11.1358 33.6617 14.3554 34.6942 17.8267 34.6942C27.2379 34.6942 34.891 27.038 34.891 17.6283C34.891 8.21866 27.2379 0.5625 17.8267 0.5625ZM27.7585 24.6616C27.3467 25.8242 25.7124 26.7884 24.4088 27.07C23.5169 27.2599 22.352 27.4113 18.4305 25.7858C13.4145 23.708 10.1843 18.6117 9.93251 18.2811C9.69142 17.9504 7.90562 15.5826 7.90562 13.1336C7.90562 10.6847 9.14949 9.49219 9.65088 8.98022C10.0627 8.55997 10.7433 8.36798 11.3961 8.36798C11.6074 8.36798 11.7972 8.37865 11.9679 8.38718C12.4693 8.40851 12.7211 8.43838 13.0518 9.22981C13.4636 10.2218 14.4663 12.6707 14.5858 12.9224C14.7074 13.1741 14.829 13.5155 14.6584 13.8461C14.4983 14.1874 14.3575 14.3389 14.1058 14.629C13.854 14.9191 13.615 15.141 13.3633 15.4524C13.1329 15.7234 12.8726 16.0135 13.1627 16.5148C13.4529 17.0054 14.4557 18.6416 15.9321 19.9557C17.8374 21.6516 19.3821 22.1934 19.9347 22.4238C20.3465 22.5945 20.8372 22.554 21.138 22.234C21.5199 21.8223 21.9914 21.1396 22.4715 20.4677C22.8129 19.9855 23.2438 19.9258 23.6962 20.0965C24.157 20.2565 26.5957 21.4617 27.0971 21.7113C27.5984 21.963 27.9291 22.0825 28.0508 22.2937C28.1702 22.5049 28.1702 23.4968 27.7585 24.6616Z" fill="#79D25C"/>
</svg>
